<svg width="4155" height="783" viewBox="0 0 4155 783" fill="none" xmlns="http://www.w3.org/2000/svg">
<path d="M484 1L967.242 685.75H0.757812L484 1Z" fill="#CBD5E1"/>
<path d="M1330.3 0.477561L1351.59 45.7207L1093.29 167.241L1072 121.998L1330.3 0.477561Z" fill="#334155"/>
<path d="M1310.01 45.2414L1331.3 0L2141.16 381.09L2119.87 426.331L1310.01 45.2414Z" fill="#334155"/>
<path d="M1072.01 122H1122.01V327H1072.01V122Z" fill="#334155"/>
<path d="M1162.01 167H1229.01V238H1162.01V167Z" fill="#334155"/>
<path d="M1460 1H1551V107H1460V1Z" fill="#334155"/>
<path d="M1301.01 277V327H1102.01V277H1301.01Z" fill="#334155"/>
<path d="M1319.01 327H1269.01V188H1319.01V327Z" fill="#334155"/>
<path d="M1294 238V188H1407V238H1294Z" fill="#334155"/>
<path d="M1267.98 597.989C1267.98 625.008 1258.22 646.379 1238.7 662.101C1219.19 677.824 1192.66 685.686 1159.13 685.686C1125.59 685.686 1096.54 679.656 1072 667.597V608.292C1092.28 617.146 1109.43 623.481 1123.45 627.297C1137.48 631.114 1150.97 633.022 1163.93 633.022C1176.89 633.022 1187.02 630.35 1194.34 625.008C1201.81 619.512 1205.55 611.498 1205.55 600.965C1205.55 594.859 1203.87 589.593 1200.52 585.166C1197.16 580.587 1192.51 576.312 1186.57 572.343C1180.77 568.222 1168.04 561.582 1148.38 552.423C1128.86 543.111 1114.61 534.486 1105.62 526.549C1085.49 509.147 1075.43 487.318 1075.43 461.062C1075.43 434.806 1084.42 414.046 1102.41 398.781C1120.4 383.516 1145.33 375.883 1177.19 375.883C1204.17 375.883 1233.98 382.982 1266.6 397.178L1246.02 446.865C1230.02 440.302 1216.68 435.722 1206 433.127C1195.33 430.532 1184.51 429.234 1173.53 429.234C1162.71 429.234 1154.02 431.982 1147.46 437.477C1141.06 442.973 1137.86 450.376 1137.86 459.688C1137.86 470.373 1143.27 479.38 1154.09 486.707C1159.43 490.371 1172.92 497.316 1194.57 507.544C1222.47 520.977 1241.68 534.486 1252.2 548.072C1262.72 561.658 1267.98 578.297 1267.98 597.989Z" fill="#334155"/>
<path d="M1528.46 681.564H1480.44L1471.98 652.027H1468.55C1461.84 662.865 1452.31 671.184 1439.96 676.985C1427.62 682.785 1413.59 685.686 1397.89 685.686C1371.06 685.686 1350.71 678.511 1336.83 664.162C1323.11 649.661 1316.25 628.748 1316.25 601.423V451.216H1378.91V585.853C1378.91 602.492 1381.88 614.933 1387.83 623.176C1393.77 631.419 1403.15 635.54 1415.95 635.54C1433.49 635.54 1446.14 629.74 1453.91 618.138C1461.84 606.384 1465.81 586.845 1465.81 559.521V451.216H1528.46V681.564Z" fill="#334155"/>
<path d="M1800.39 565.932V681.564H1737.5V546.927C1737.5 530.136 1734.68 517.695 1729.04 509.604C1723.4 501.361 1714.71 497.24 1702.97 497.24C1686.97 497.24 1675.3 503.117 1667.99 514.871C1660.67 526.472 1657.01 545.935 1657.01 573.259V681.564H1594.35V451.216H1642.37L1650.84 480.754H1654.27C1660.36 470.068 1669.21 461.749 1680.79 455.795C1692.53 449.842 1705.95 446.865 1721.04 446.865C1755.65 446.865 1778.97 458.162 1791.01 480.754H1796.73C1802.68 469.916 1811.67 461.596 1823.71 455.795C1835.76 449.842 1849.4 446.865 1864.65 446.865C1891.17 446.865 1910.99 453.658 1924.1 467.244C1937.21 480.83 1943.77 502.201 1943.77 531.357V681.564H1880.88V546.927C1880.88 530.136 1878.06 517.695 1872.42 509.604C1866.78 501.361 1858.09 497.24 1846.35 497.24C1830.8 497.24 1819.22 502.812 1811.59 513.955C1804.12 524.946 1800.39 542.271 1800.39 565.932Z" fill="#334155"/>
<path d="M2214.28 565.932V681.564H2151.4V546.927C2151.4 530.136 2148.57 517.695 2142.93 509.604C2137.29 501.361 2128.6 497.24 2116.87 497.24C2100.86 497.24 2089.2 503.117 2081.88 514.871C2074.56 526.472 2070.9 545.935 2070.9 573.259V681.564H2008.24V451.216H2056.27L2064.73 480.754H2068.16C2074.26 470.068 2083.1 461.749 2094.68 455.795C2106.42 449.842 2119.84 446.865 2134.93 446.865C2169.54 446.865 2192.86 458.162 2204.91 480.754H2210.62C2216.57 469.916 2225.56 461.596 2237.61 455.795C2249.65 449.842 2263.29 446.865 2278.54 446.865C2305.07 446.865 2324.88 453.658 2337.99 467.244C2351.11 480.83 2357.66 502.201 2357.66 531.357V681.564H2294.78V546.927C2294.78 530.136 2291.95 517.695 2286.31 509.604C2280.67 501.361 2271.98 497.24 2260.25 497.24C2244.7 497.24 2233.11 502.812 2225.49 513.955C2218.02 524.946 2214.28 542.271 2214.28 565.932Z" fill="#334155"/>
<path d="M2484.79 451.216V681.564H2422.14V451.216H2484.79ZM2453.69 422.594C2430.83 422.594 2419.39 412.367 2419.39 391.912C2419.39 371.304 2430.75 361 2453.46 361C2476.33 361 2487.77 371.228 2487.77 391.683C2487.77 401.605 2484.87 409.237 2479.08 414.58C2473.28 419.923 2464.82 422.594 2453.69 422.594Z" fill="#334155"/>
<path d="M2620.19 609.437C2620.19 618.138 2622.63 624.702 2627.51 629.129C2632.39 633.403 2639.78 635.54 2649.69 635.54C2659.6 635.54 2672.1 633.174 2687.2 628.442V675.153C2671.65 682.175 2651.9 685.686 2627.97 685.686C2604.19 685.686 2586.5 679.427 2574.92 666.91C2563.33 654.393 2557.54 635.235 2557.54 609.437V498.385H2527.35V471.824L2561.88 450.758L2580.18 402.215H2620.19V451.216H2684.68V498.385H2620.19V609.437Z" fill="#334155"/>
<path d="M2923.85 565.932V681.564H2860.05V380.234H2947.63C2988.34 380.234 3018.52 387.714 3038.19 402.673C3058.01 417.48 3067.92 440.073 3067.92 470.45C3067.92 488.157 3063.04 503.956 3053.28 517.848C3043.68 531.586 3029.88 542.424 3011.89 550.362C3057.17 617.986 3086.67 661.72 3100.39 681.564H3029.5L2957.7 565.932H2923.85ZM2923.85 432.669V513.955H2944.43C2964.56 513.955 2979.42 510.597 2989.02 503.88C2998.63 497.164 3003.43 486.707 3003.43 472.511C3003.43 458.314 2998.55 448.163 2988.8 442.057C2979.19 435.798 2963.95 432.669 2943.06 432.669H2923.85Z" fill="#334155"/>
<path d="M3272.34 540.287C3272.19 524.869 3268.22 512.886 3260.45 504.338C3252.67 495.79 3242.08 491.515 3228.66 491.515C3215.4 491.515 3204.96 495.79 3197.33 504.338C3189.71 512.734 3185.37 524.717 3184.3 540.287H3272.34ZM3318.3 669.429C3296.65 680.267 3269.67 685.686 3237.35 685.686C3200.31 685.686 3171.34 675.535 3150.45 655.232C3129.72 634.777 3119.35 605.468 3119.35 567.306C3119.35 529.144 3128.96 499.53 3148.17 478.464C3167.68 457.398 3193.98 446.865 3227.06 446.865C3260.3 446.865 3285.98 456.177 3304.12 474.8C3322.27 493.424 3331.34 518.992 3331.34 551.507V581.96H3182.93C3183.54 599.973 3188.8 614.017 3198.71 624.092C3208.77 634.014 3222.64 638.975 3240.32 638.975C3266.7 638.975 3292.69 632.945 3318.3 620.886V669.429Z" fill="#334155"/>
<path d="M3572.46 681.564H3528.56L3516.44 650.195H3514.84C3504.17 663.628 3493.27 672.94 3482.14 678.13C3471.01 683.167 3456.45 685.686 3438.46 685.686C3416.2 685.686 3398.75 679.351 3386.09 666.681C3373.44 653.858 3367.11 635.617 3367.11 611.956C3367.11 588.295 3375.5 570.588 3392.27 558.834C3409.19 547.08 3435.11 540.592 3470.02 539.371L3510.04 538.226V528.151C3510.04 504.796 3498.07 493.118 3474.13 493.118C3455.99 493.118 3434.42 498.614 3409.42 509.604L3388.61 467.244C3414.98 453.353 3444.02 446.407 3475.73 446.407C3507.6 446.407 3531.68 453.277 3548 467.015C3564.31 480.601 3572.46 500.98 3572.46 528.151V681.564ZM3510.04 593.867V574.862L3485.8 575.549C3467.35 576.16 3453.7 579.518 3444.86 585.624C3436.02 591.577 3431.6 600.736 3431.6 613.101C3431.6 630.808 3441.74 639.662 3462.01 639.662C3476.65 639.662 3488.31 635.54 3497 627.297C3505.69 618.902 3510.04 607.758 3510.04 593.867Z" fill="#334155"/>
<path d="M3699.52 361V681.564H3636.86V361H3699.52Z" fill="#334155"/>
<path d="M3834.92 609.437C3834.92 618.138 3837.36 624.702 3842.24 629.129C3847.12 633.403 3854.51 635.54 3864.42 635.54C3874.33 635.54 3886.83 633.174 3901.92 628.442V675.153C3886.37 682.175 3866.63 685.686 3842.7 685.686C3818.92 685.686 3801.23 679.427 3789.64 666.91C3778.06 654.393 3772.27 635.235 3772.27 609.437V498.385H3742.08V471.824L3776.61 450.758L3794.9 402.215H3834.92V451.216H3899.41V498.385H3834.92V609.437Z" fill="#334155"/>
<path d="M3961.54 783C3950.56 783 3939.97 781.855 3929.75 779.565V729.649C3937.68 731.328 3945.91 732.168 3954.45 732.168C3977.62 732.168 3993.78 718.506 4002.93 691.181L4006.82 679.961L3915.35 451.216H3984.18L4027.4 580.815C4031.21 591.654 4033.8 605.01 4035.17 620.886H4036.32C4037.84 606.842 4040.81 593.485 4045.24 580.815L4087.77 451.216H4155L4057.81 711.102C4048.82 734.763 4036.09 752.623 4019.62 764.682C4003.16 776.894 3983.8 783 3961.54 783Z" fill="#334155"/>
<path d="M314.737 240.817L356.5 300L413.232 219.603L449.5 271L475.358 234.355L536.5 321L604.197 225.063L622.5 251L641.58 223.96L579.776 136.25H579.448L484 1L374.436 156.25H374.393L371.46 160.408L371.481 160.437L353.97 185.25H353.936L314.737 240.817Z" fill="white"/>
</svg>
