<svg width="4155" height="783" viewBox="0 0 4155 783" fill="none" xmlns="http://www.w3.org/2000/svg">
<path d="M483.242 1L966.484 685.75H0L483.242 1Z" fill="#CBD5E1"/>
<path d="M1329.54 0.477561L1350.83 45.7207L1092.53 167.241L1071.24 121.998L1329.54 0.477561Z" fill="#CBD5E1"/>
<path d="M1309.25 45.2414L1330.54 0L2140.4 381.09L2119.11 426.331L1309.25 45.2414Z" fill="#CBD5E1"/>
<path d="M1071.25 122H1121.25V327H1071.25V122Z" fill="#CBD5E1"/>
<path d="M1161.25 167H1228.25V238H1161.25V167Z" fill="#CBD5E1"/>
<path d="M1459.24 1H1550.24V107H1459.24V1Z" fill="#CBD5E1"/>
<path d="M1300.25 277V327H1101.25V277H1300.25Z" fill="#CBD5E1"/>
<path d="M1318.25 327H1268.25V188H1318.25V327Z" fill="#CBD5E1"/>
<path d="M1293.24 238V188H1406.24V238H1293.24Z" fill="#CBD5E1"/>
<path d="M1267.22 597.989C1267.22 625.008 1257.46 646.379 1237.95 662.101C1218.43 677.824 1191.91 685.686 1158.37 685.686C1124.83 685.686 1095.79 679.656 1071.24 667.597V608.292C1091.52 617.146 1108.67 623.481 1122.69 627.297C1136.72 631.114 1150.21 633.022 1163.17 633.022C1176.13 633.022 1186.27 630.35 1193.58 625.008C1201.05 619.512 1204.79 611.498 1204.79 600.965C1204.79 594.859 1203.11 589.593 1199.76 585.166C1196.4 580.587 1191.75 576.312 1185.81 572.343C1180.02 568.222 1167.29 561.582 1147.62 552.423C1128.11 543.111 1113.85 534.486 1104.86 526.549C1084.73 509.147 1074.67 487.318 1074.67 461.062C1074.67 434.806 1083.67 414.046 1101.66 398.781C1119.65 383.516 1144.57 375.883 1176.43 375.883C1203.42 375.883 1233.22 382.982 1265.85 397.178L1245.26 446.865C1229.26 440.302 1215.92 435.722 1205.25 433.127C1194.57 430.532 1183.75 429.234 1172.77 429.234C1161.95 429.234 1153.26 431.982 1146.71 437.477C1140.3 442.973 1137.1 450.376 1137.1 459.688C1137.1 470.373 1142.51 479.38 1153.34 486.707C1158.67 490.371 1172.16 497.316 1193.81 507.544C1221.71 520.977 1240.92 534.486 1251.44 548.072C1261.96 561.658 1267.22 578.297 1267.22 597.989Z" fill="#CBD5E1"/>
<path d="M1527.7 681.564H1479.68L1471.22 652.027H1467.79C1461.08 662.865 1451.56 671.184 1439.21 676.985C1426.86 682.785 1412.83 685.686 1397.13 685.686C1370.3 685.686 1349.95 678.511 1336.07 664.162C1322.35 649.661 1315.49 628.748 1315.49 601.423V451.216H1378.15V585.853C1378.15 602.492 1381.12 614.933 1387.07 623.176C1393.01 631.419 1402.39 635.54 1415.2 635.54C1432.73 635.54 1445.38 629.74 1453.16 618.138C1461.08 606.384 1465.05 586.845 1465.05 559.521V451.216H1527.7V681.564Z" fill="#CBD5E1"/>
<path d="M1799.63 565.932V681.564H1736.75V546.927C1736.75 530.136 1733.93 517.695 1728.29 509.604C1722.64 501.361 1713.95 497.24 1702.22 497.24C1686.21 497.24 1674.55 503.117 1667.23 514.871C1659.91 526.472 1656.25 545.935 1656.25 573.259V681.564H1593.6V451.216H1641.62L1650.08 480.754H1653.51C1659.61 470.068 1668.45 461.749 1680.03 455.795C1691.77 449.842 1705.19 446.865 1720.28 446.865C1754.89 446.865 1778.21 458.162 1790.26 480.754H1795.97C1801.92 469.916 1810.91 461.596 1822.96 455.795C1835 449.842 1848.64 446.865 1863.89 446.865C1890.42 446.865 1910.23 453.658 1923.35 467.244C1936.46 480.83 1943.01 502.201 1943.01 531.357V681.564H1880.13V546.927C1880.13 530.136 1877.31 517.695 1871.67 509.604C1866.02 501.361 1857.33 497.24 1845.6 497.24C1830.05 497.24 1818.46 502.812 1810.84 513.955C1803.37 524.946 1799.63 542.271 1799.63 565.932Z" fill="#CBD5E1"/>
<path d="M2213.52 565.932V681.564H2150.64V546.927C2150.64 530.136 2147.82 517.695 2142.18 509.604C2136.54 501.361 2127.85 497.24 2116.11 497.24C2100.1 497.24 2088.44 503.117 2081.12 514.871C2073.8 526.472 2070.14 545.935 2070.14 573.259V681.564H2007.49V451.216H2055.51L2063.97 480.754H2067.4C2073.5 470.068 2082.34 461.749 2093.93 455.795C2105.66 449.842 2119.08 446.865 2134.17 446.865C2168.78 446.865 2192.1 458.162 2204.15 480.754H2209.86C2215.81 469.916 2224.8 461.596 2236.85 455.795C2248.89 449.842 2262.54 446.865 2277.78 446.865C2304.31 446.865 2324.13 453.658 2337.24 467.244C2350.35 480.83 2356.9 502.201 2356.9 531.357V681.564H2294.02V546.927C2294.02 530.136 2291.2 517.695 2285.56 509.604C2279.92 501.361 2271.23 497.24 2259.49 497.24C2243.94 497.24 2232.35 502.812 2224.73 513.955C2217.26 524.946 2213.52 542.271 2213.52 565.932Z" fill="#CBD5E1"/>
<path d="M2484.03 451.216V681.564H2421.38V451.216H2484.03ZM2452.94 422.594C2430.07 422.594 2418.63 412.367 2418.63 391.912C2418.63 371.304 2429.99 361 2452.71 361C2475.57 361 2487.01 371.228 2487.01 391.683C2487.01 401.605 2484.11 409.237 2478.32 414.58C2472.52 419.923 2464.06 422.594 2452.94 422.594Z" fill="#CBD5E1"/>
<path d="M2619.44 609.437C2619.44 618.138 2621.87 624.702 2626.75 629.129C2631.63 633.403 2639.03 635.54 2648.93 635.54C2658.84 635.54 2671.35 633.174 2686.44 628.442V675.153C2670.89 682.175 2651.15 685.686 2627.21 685.686C2603.43 685.686 2585.74 679.427 2574.16 666.91C2562.57 654.393 2556.78 635.235 2556.78 609.437V498.385H2526.59V471.824L2561.12 450.758L2579.42 402.215H2619.44V451.216H2683.92V498.385H2619.44V609.437Z" fill="#CBD5E1"/>
<path d="M2923.09 565.932V681.564H2859.29V380.234H2946.88C2987.58 380.234 3017.77 387.714 3037.43 402.673C3057.25 417.48 3067.16 440.073 3067.16 470.45C3067.16 488.157 3062.28 503.956 3052.52 517.848C3042.92 531.586 3029.12 542.424 3011.13 550.362C3056.41 617.986 3085.91 661.72 3099.63 681.564H3028.74L2956.94 565.932H2923.09ZM2923.09 432.669V513.955H2943.68C2963.8 513.955 2978.66 510.597 2988.27 503.88C2997.87 497.164 3002.67 486.707 3002.67 472.511C3002.67 458.314 2997.8 448.163 2988.04 442.057C2978.43 435.798 2963.19 432.669 2942.3 432.669H2923.09Z" fill="#CBD5E1"/>
<path d="M3271.58 540.287C3271.43 524.869 3267.47 512.886 3259.69 504.338C3251.92 495.79 3241.32 491.515 3227.9 491.515C3214.64 491.515 3204.2 495.79 3196.58 504.338C3188.95 512.734 3184.61 524.717 3183.54 540.287H3271.58ZM3317.55 669.429C3295.9 680.267 3268.91 685.686 3236.59 685.686C3199.55 685.686 3170.58 675.535 3149.7 655.232C3128.96 634.777 3118.6 605.468 3118.6 567.306C3118.6 529.144 3128.2 499.53 3147.41 478.464C3166.92 457.398 3193.22 446.865 3226.3 446.865C3259.54 446.865 3285.23 456.177 3303.37 474.8C3321.51 493.424 3330.58 518.992 3330.58 551.507V581.96H3182.17C3182.78 599.973 3188.04 614.017 3197.95 624.092C3208.01 634.014 3221.88 638.975 3239.57 638.975C3265.94 638.975 3291.93 632.945 3317.55 620.886V669.429Z" fill="#CBD5E1"/>
<path d="M3571.71 681.564H3527.8L3515.68 650.195H3514.08C3503.41 663.628 3492.51 672.94 3481.38 678.13C3470.25 683.167 3455.69 685.686 3437.7 685.686C3415.44 685.686 3397.99 679.351 3385.34 666.681C3372.68 653.858 3366.35 635.617 3366.35 611.956C3366.35 588.295 3374.74 570.588 3391.51 558.834C3408.43 547.08 3434.35 540.592 3469.26 539.371L3509.28 538.226V528.151C3509.28 504.796 3497.31 493.118 3473.38 493.118C3455.23 493.118 3433.66 498.614 3408.66 509.604L3387.85 467.244C3414.22 453.353 3443.27 446.407 3474.98 446.407C3506.84 446.407 3530.93 453.277 3547.24 467.015C3563.55 480.601 3571.71 500.98 3571.71 528.151V681.564ZM3509.28 593.867V574.862L3485.04 575.549C3466.59 576.16 3452.95 579.518 3444.1 585.624C3435.26 591.577 3430.84 600.736 3430.84 613.101C3430.84 630.808 3440.98 639.662 3461.26 639.662C3475.89 639.662 3487.55 635.54 3496.24 627.297C3504.93 618.902 3509.28 607.758 3509.28 593.867Z" fill="#CBD5E1"/>
<path d="M3698.76 361V681.564H3636.11V361H3698.76Z" fill="#CBD5E1"/>
<path d="M3834.16 609.437C3834.16 618.138 3836.6 624.702 3841.48 629.129C3846.36 633.403 3853.75 635.54 3863.66 635.54C3873.57 635.54 3886.07 633.174 3901.17 628.442V675.153C3885.62 682.175 3865.87 685.686 3841.94 685.686C3818.16 685.686 3800.47 679.427 3788.89 666.91C3777.3 654.393 3771.51 635.235 3771.51 609.437V498.385H3741.32V471.824L3775.85 450.758L3794.15 402.215H3834.16V451.216H3898.65V498.385H3834.16V609.437Z" fill="#CBD5E1"/>
<path d="M3960.78 783C3949.81 783 3939.21 781.855 3929 779.565V729.649C3936.92 731.328 3945.16 732.168 3953.69 732.168C3976.87 732.168 3993.03 718.506 4002.17 691.181L4006.06 679.961L3914.59 451.216H3983.42L4026.64 580.815C4030.45 591.654 4033.04 605.01 4034.42 620.886H4035.56C4037.08 606.842 4040.06 593.485 4044.48 580.815L4087.01 451.216H4154.24L4057.05 711.102C4048.06 734.763 4035.33 752.623 4018.87 764.682C4002.4 776.894 3983.04 783 3960.78 783Z" fill="#CBD5E1"/>
<path d="M313.979 240.817L355.742 300L412.474 219.603L448.742 271L474.601 234.355L535.742 321L603.44 225.063L621.742 251L640.823 223.96L579.018 136.25H578.69L483.242 1L373.678 156.25H373.635L370.702 160.408L370.723 160.437L353.213 185.25H353.178L313.979 240.817Z" fill="white"/>
</svg>
